<?xml version="1.0" standalone="no"?>
<!DOCTYPE svg PUBLIC "-//W3C//DTD SVG 20010904//EN"
 "http://www.w3.org/TR/2001/REC-SVG-20010904/DTD/svg10.dtd">
<svg version="1.0" xmlns="http://www.w3.org/2000/svg"
 width="807.000000pt" height="816.000000pt" viewBox="0 0 807.000000 816.000000"
 preserveAspectRatio="xMidYMid meet">
<metadata>
Created by potrace 1.16, written by Peter Selinger 2001-2019
</metadata>
<g transform="translate(0.000000,816.000000) scale(0.100000,-0.100000)"
fill="#000000" stroke="none">
<path d="M725 7783 c-180 -53 -314 -162 -389 -318 -72 -147 -66 87 -66 -2665
0 -2752 -6 -2518 66 -2665 77 -160 211 -268 389 -316 66 -18 124 -19 1075 -19
553 0 1010 -4 1017 -8 8 -5 -41 -113 -164 -360 l-176 -352 -164 0 -163 0 -40
-40 -40 -40 0 -280 0 -280 40 -40 40 -40 1840 0 1840 0 40 40 40 40 0 280 0
280 -40 40 -40 40 -163 0 -164 0 -176 352 c-123 247 -172 355 -164 360 7 4
464 8 1017 8 962 0 1008 1 1078 20 216 57 374 216 433 435 18 68 19 156 19
2545 0 2389 -1 2477 -19 2545 -48 178 -156 312 -316 389 -147 72 167 66 -3391
65 -2800 -1 -3215 -3 -3259 -16z m6492 -240 c104 -35 201 -132 236 -236 16
-51 17 -198 17 -2507 0 -2309 -1 -2456 -18 -2507 -34 -104 -131 -201 -235
-235 -51 -17 -232 -18 -3227 -18 -2995 0 -3176 1 -3227 17 -104 35 -201 132
-235 236 -17 51 -18 198 -18 2507 0 2309 1 2456 18 2507 33 102 124 196 228
233 47 17 191 18 3228 19 3002 1 3182 0 3233 -16z m-2164 -6095 c123 -247 172
-355 164 -360 -7 -4 -559 -8 -1227 -8 -668 0 -1220 4 -1227 8 -8 5 41 113 164
360 l176 352 887 0 887 0 176 -352z m612 -728 l0 -115 -1675 0 -1675 0 -3 104
c-1 58 0 111 2 118 5 11 300 13 1678 11 l1673 -3 0 -115z"/>
<path d="M790 7280 l-40 -40 0 -2200 0 -2200 40 -40 40 -40 3160 0 3160 0 40
40 40 40 0 2200 0 2200 -40 40 -40 40 -3160 0 -3160 0 -40 -40z m6195 -2240
l0 -2035 -2995 0 -2995 0 -3 2025 c-1 1114 0 2031 3 2038 3 10 608 12 2997 10
l2993 -3 0 -2035z"/>
<path d="M1270 6800 l-40 -40 0 -280 0 -280 40 -40 c38 -38 41 -39 117 -42
l78 -3 5 -115 5 -115 115 0 115 0 5 115 5 115 78 3 c76 3 79 4 117 42 38 38
39 41 42 117 l3 78 655 5 655 5 0 115 0 115 -655 5 -655 5 -3 78 c-3 76 -4 79
-42 117 l-40 40 -280 0 -280 0 -40 -40z m435 -320 l0 -115 -115 0 -115 0 -3
104 c-1 58 0 111 2 118 4 11 31 13 118 11 l113 -3 0 -115z"/>
<path d="M3747 6641 l-199 -198 77 -77 c43 -42 83 -76 89 -76 6 0 41 30 78 67
47 47 69 62 73 52 2 -8 6 -102 7 -209 l3 -195 115 0 115 0 3 195 c1 107 5 201
7 209 4 10 26 -5 73 -52 37 -37 74 -67 83 -67 8 0 48 34 89 75 l75 75 -201
200 c-266 266 -222 266 -487 1z"/>
<path d="M6070 6800 c-38 -38 -39 -41 -42 -117 l-3 -78 -655 -5 -655 -5 0
-115 0 -115 655 -5 655 -5 3 -78 c3 -76 4 -79 42 -117 38 -38 41 -39 117 -42
l78 -3 5 -115 5 -115 115 0 115 0 5 115 5 115 78 3 c76 3 79 4 117 42 l40 40
0 280 0 280 -40 40 -40 40 -280 0 -280 0 -40 -40z m435 -320 l0 -115 -115 0
-115 0 -3 104 c-1 58 0 111 2 118 4 11 31 13 118 11 l113 -3 0 -115z"/>
<path d="M3925 5861 c-132 -72 -242 -133 -255 -141 -8 -6 -21 -13 -29 -17 -8
-4 -58 -31 -110 -61 -53 -30 -105 -58 -116 -63 -11 -5 -27 -13 -35 -19 -22
-15 -211 -121 -235 -131 -11 -5 -36 -19 -55 -30 -87 -52 -211 -119 -219 -119
-5 0 -26 -19 -45 -42 l-36 -42 0 -636 0 -636 36 -42 c19 -23 40 -42 45 -42 8
0 132 -67 219 -119 19 -11 44 -25 55 -30 24 -10 213 -116 235 -131 8 -6 24
-14 35 -19 23 -10 213 -116 235 -131 8 -6 22 -13 30 -17 8 -3 49 -25 90 -48
214 -120 221 -122 303 -76 29 15 88 48 132 72 44 24 89 49 100 56 11 7 27 16
35 20 8 4 60 32 115 63 55 31 107 59 115 63 8 4 24 13 35 20 11 7 65 37 120
67 55 30 109 60 120 67 11 7 27 16 35 20 8 4 61 33 118 65 58 32 108 58 112
58 5 0 25 19 44 42 l36 42 0 636 0 636 -36 42 c-19 23 -39 42 -44 42 -4 0 -54
26 -112 58 -57 32 -110 61 -118 65 -8 4 -24 13 -35 20 -11 7 -65 37 -120 67
-55 30 -109 60 -120 67 -11 7 -27 16 -35 20 -8 4 -60 32 -115 63 -55 31 -107
59 -115 63 -8 4 -24 13 -35 20 -11 7 -56 32 -100 56 -44 24 -103 57 -132 72
-58 32 -102 35 -148 10z m164 -293 c42 -24 85 -48 96 -55 11 -7 29 -16 40 -21
25 -12 215 -118 235 -132 8 -6 24 -14 35 -19 24 -10 213 -116 235 -131 8 -6
27 -15 43 -21 15 -6 27 -19 27 -29 0 -10 -12 -23 -27 -29 -16 -6 -35 -15 -43
-21 -22 -15 -211 -121 -235 -131 -11 -5 -27 -13 -35 -19 -20 -14 -210 -120
-235 -132 -11 -5 -29 -14 -40 -21 -85 -52 -176 -97 -194 -97 -18 0 -112 46
-196 97 -11 7 -27 16 -35 20 -8 4 -60 32 -115 63 -55 31 -107 59 -115 63 -8 4
-24 13 -35 20 -11 7 -65 37 -120 67 -55 30 -109 60 -120 67 -11 7 -32 17 -47
24 -16 6 -28 19 -28 29 0 10 12 23 28 29 15 7 36 17 47 24 11 7 65 37 120 67
55 30 109 60 120 67 11 7 27 16 35 20 24 11 224 122 240 132 8 6 41 24 73 41
32 17 73 40 90 51 46 28 71 24 156 -23z m-951 -673 c9 -5 62 -35 117 -65 55
-30 108 -59 117 -65 9 -5 49 -27 88 -48 68 -37 159 -88 190 -107 8 -5 42 -23
75 -41 33 -17 79 -43 103 -56 l42 -25 0 -452 c0 -249 -3 -455 -6 -459 -5 -5
-42 12 -102 48 -9 6 -62 35 -117 65 -55 30 -109 60 -120 67 -11 7 -27 16 -35
20 -8 4 -60 32 -115 63 -55 31 -107 59 -115 63 -8 4 -24 13 -35 20 -11 7 -59
34 -107 60 l-88 48 0 453 c0 249 3 455 6 459 5 5 40 -11 102 -48z m1812 -410
l0 -454 -87 -49 c-49 -27 -95 -52 -103 -55 -8 -4 -22 -11 -30 -17 -20 -14
-210 -120 -235 -132 -11 -5 -29 -14 -40 -21 -11 -7 -65 -37 -120 -67 -55 -30
-108 -59 -117 -65 -62 -37 -97 -53 -102 -48 -3 4 -6 210 -6 459 l0 452 63 35
c34 19 81 46 105 58 24 13 51 29 60 34 9 6 62 35 117 65 55 30 109 60 120 67
11 7 27 16 35 20 8 4 60 32 115 63 55 31 107 59 115 63 8 4 33 18 55 31 22 13
43 22 48 19 4 -2 7 -208 7 -458z"/>
<path d="M1474 5627 c-2 -7 -3 -60 -2 -118 l3 -104 115 0 115 0 0 115 0 115
-113 3 c-87 2 -114 0 -118 -11z"/>
<path d="M6274 5627 c-2 -7 -3 -60 -2 -118 l3 -104 115 0 115 0 0 115 0 115
-113 3 c-87 2 -114 0 -118 -11z"/>
<path d="M1474 5147 c-2 -7 -3 -60 -2 -118 l3 -104 115 0 115 0 0 115 0 115
-113 3 c-87 2 -114 0 -118 -11z"/>
<path d="M6274 5147 c-2 -7 -3 -60 -2 -118 l3 -104 115 0 115 0 0 115 0 115
-113 3 c-87 2 -114 0 -118 -11z"/>
<path d="M2028 4922 c-263 -263 -262 -220 -6 -478 106 -107 199 -194 208 -194
8 0 49 33 89 74 l74 75 -73 75 c-50 52 -68 77 -59 81 8 3 102 6 209 7 l195 3
0 115 0 115 -195 3 c-107 1 -201 4 -209 7 -9 4 9 29 59 81 l73 75 -79 80 c-43
43 -81 79 -84 79 -3 0 -94 -89 -202 -198z"/>
<path d="M5665 5040 l-78 -79 73 -75 c50 -52 68 -77 59 -81 -8 -3 -102 -6
-209 -7 l-195 -3 0 -115 0 -115 195 -3 c107 -1 201 -4 209 -7 9 -4 -9 -30 -59
-81 l-74 -76 76 -74 c42 -41 83 -74 90 -74 8 0 100 87 206 194 255 257 255
216 5 468 -104 104 -195 194 -204 198 -12 7 -34 -10 -94 -70z"/>
<path d="M1474 4667 c-2 -7 -3 -60 -2 -118 l3 -104 115 0 115 0 0 115 0 115
-113 3 c-87 2 -114 0 -118 -11z"/>
<path d="M6274 4667 c-2 -7 -3 -60 -2 -118 l3 -104 115 0 115 0 0 115 0 115
-113 3 c-87 2 -114 0 -118 -11z"/>
<path d="M1475 4188 c-3 -7 -6 -60 -7 -118 l-3 -105 -78 -3 c-76 -3 -79 -4
-117 -42 l-40 -40 0 -280 0 -280 40 -40 40 -40 280 0 280 0 40 40 c38 38 39
41 42 117 l3 78 415 5 415 5 0 115 0 115 -415 5 -415 5 -3 78 c-3 76 -4 79
-42 117 -38 38 -41 39 -117 42 l-78 3 -5 115 -5 115 -113 3 c-84 2 -114 -1
-117 -10z m230 -588 l0 -115 -115 0 -115 0 -3 104 c-1 58 0 111 2 118 4 11 31
13 118 11 l113 -3 0 -115z"/>
<path d="M6275 4188 c-3 -7 -6 -60 -7 -118 l-3 -105 -78 -3 c-76 -3 -79 -4
-117 -42 -38 -38 -39 -41 -42 -117 l-3 -78 -415 -5 -415 -5 0 -115 0 -115 415
-5 415 -5 3 -78 c3 -76 4 -79 42 -117 l40 -40 280 0 280 0 40 40 40 40 0 280
0 280 -40 40 c-38 38 -41 39 -117 42 l-78 3 -5 115 -5 115 -113 3 c-84 2 -114
-1 -117 -10z m230 -588 l0 -115 -115 0 -115 0 -3 104 c-1 58 0 111 2 118 4 11
31 13 118 11 l113 -3 0 -115z"/>
<path d="M6274 2507 c-2 -7 -3 -60 -2 -118 l3 -104 115 0 115 0 0 115 0 115
-113 3 c-87 2 -114 0 -118 -11z"/>
<path d="M6754 2507 c-2 -7 -3 -60 -2 -118 l3 -104 115 0 115 0 0 115 0 115
-113 3 c-87 2 -114 0 -118 -11z"/>
</g>
</svg>
