<?xml version="1.0" standalone="no"?>
<!DOCTYPE svg PUBLIC "-//W3C//DTD SVG 20010904//EN"
 "http://www.w3.org/TR/2001/REC-SVG-20010904/DTD/svg10.dtd">
<svg version="1.0" xmlns="http://www.w3.org/2000/svg"
 width="269.000000pt" height="272.000000pt" viewBox="0 0 269.000000 272.000000"
 preserveAspectRatio="xMidYMid meet">
<metadata>
Created by potrace 1.16, written by Peter Selinger 2001-2019
</metadata>
<g transform="translate(0.000000,272.000000) scale(0.100000,-0.100000)"
fill="#000000" stroke="none">
<path d="M222 2589 c-46 -14 -109 -80 -122 -128 -7 -27 -10 -305 -8 -883 l3
-843 24 -38 c13 -21 42 -50 64 -65 l40 -27 359 -3 c197 -2 358 -5 358 -7 0 -3
-26 -57 -57 -120 l-58 -115 -55 0 c-31 0 -61 -5 -68 -12 -16 -16 -16 -200 0
-216 17 -17 1239 -17 1256 0 16 16 16 200 0 216 -7 7 -37 12 -68 12 l-55 0
-58 115 c-31 63 -57 117 -57 120 0 2 161 5 358 7 l359 3 40 27 c22 15 51 44
64 65 l24 38 0 866 0 865 -27 41 c-15 22 -44 51 -65 64 l-38 24 -1090 2 c-670
1 -1103 -2 -1123 -8z m2230 -107 l33 -32 0 -850 0 -850 -33 -32 -32 -33 -1090
0 -1090 0 -32 33 -33 32 0 849 0 849 25 27 c14 15 34 31 45 36 11 4 505 7
1097 6 l1078 -2 32 -33z m-769 -1997 c31 -63 57 -117 57 -120 0 -3 -184 -5
-410 -5 -225 0 -410 2 -410 5 0 3 26 57 57 120 l58 115 295 0 295 0 58 -115z
m207 -245 l0 -40 -560 0 -560 0 0 40 0 40 560 0 560 0 0 -40z"/>
<path d="M262 2428 c-17 -17 -17 -1479 0 -1496 17 -17 2119 -17 2136 0 17 17
17 1479 0 1496 -17 17 -2119 17 -2136 0z m2068 -748 l0 -680 -1000 0 -1000 0
0 680 0 680 1000 0 1000 0 0 -680z"/>
<path d="M422 2268 c-16 -16 -16 -200 0 -216 7 -7 25 -12 40 -12 26 0 28 -3
28 -40 l0 -40 40 0 40 0 0 40 c0 37 2 40 28 40 36 0 52 16 52 52 l0 28 220 0
220 0 0 40 0 40 -220 0 -220 0 0 28 c0 45 -15 52 -120 52 -61 0 -100 -4 -108
-12z"/>
<path d="M1250 2215 l-64 -65 26 -27 27 -27 26 24 25 23 0 -71 0 -72 40 0 40
0 0 72 0 71 25 -23 c27 -26 47 -22 69 13 9 14 -1 28 -54 82 -35 36 -71 65 -80
65 -9 0 -45 -29 -80 -65z"/>
<path d="M2022 2268 c-7 -7 -12 -25 -12 -40 l0 -28 -220 0 -220 0 0 -40 0 -40
220 0 220 0 0 -28 c0 -36 16 -52 52 -52 26 0 28 -3 28 -40 l0 -40 40 0 40 0 0
40 c0 37 2 40 28 40 15 0 33 5 40 12 16 16 16 200 0 216 -8 8 -47 12 -108 12
-61 0 -100 -4 -108 -12z"/>
<path d="M1145 1864 c-93 -52 -180 -102 -192 -110 -23 -14 -23 -17 -23 -233 0
-163 3 -221 13 -229 24 -19 375 -212 387 -212 12 0 363 193 388 212 9 8 12 66
12 228 0 162 -3 220 -12 228 -28 22 -377 212 -390 212 -7 -1 -89 -44 -183 -96z
m328 -69 c70 -38 127 -72 127 -75 0 -9 -254 -145 -270 -145 -16 0 -270 137
-270 145 0 10 255 148 270 147 8 -1 73 -33 143 -72z m-270 -250 l87 -49 0
-154 0 -154 -52 29 c-29 17 -92 52 -140 78 l-88 49 0 154 0 154 53 -29 c28
-17 91 -52 140 -78z m447 -48 l0 -153 -87 -49 c-49 -26 -112 -61 -140 -78
l-53 -29 0 154 0 154 138 77 c75 42 138 77 140 77 1 0 2 -69 2 -153z"/>
<path d="M672 1637 c-34 -34 -62 -69 -62 -78 0 -8 29 -44 65 -79 54 -53 68
-63 82 -54 35 22 39 42 13 69 l-23 25 71 0 72 0 0 40 0 40 -72 0 -71 0 21 23
c12 13 22 28 22 34 0 12 -33 43 -46 43 -5 0 -38 -28 -72 -63z"/>
<path d="M1887 1682 c-22 -24 -21 -31 5 -59 l21 -23 -71 0 -72 0 0 -40 0 -40
72 0 71 0 -21 -23 c-28 -30 -28 -43 4 -63 25 -17 25 -17 90 47 35 35 64 70 64
79 0 17 -119 140 -136 140 -6 0 -18 -8 -27 -18z"/>
<path d="M490 1360 c0 -37 -2 -40 -28 -40 -15 0 -33 -5 -40 -12 -16 -16 -16
-200 0 -216 16 -16 200 -16 216 0 7 7 12 25 12 40 l0 28 140 0 140 0 0 40 0
40 -140 0 -140 0 0 28 c0 36 -16 52 -52 52 -26 0 -28 3 -28 40 l0 40 -40 0
-40 0 0 -40z"/>
<path d="M2090 1360 c0 -37 -2 -40 -28 -40 -36 0 -52 -16 -52 -52 l0 -28 -140
0 -140 0 0 -40 0 -40 140 0 140 0 0 -28 c0 -15 5 -33 12 -40 16 -16 200 -16
216 0 8 8 12 47 12 108 0 105 -7 120 -52 120 -26 0 -28 3 -28 40 l0 40 -40 0
-40 0 0 -40z"/>
</g>
</svg>
