<?xml version="1.0" standalone="no"?>
<!DOCTYPE svg PUBLIC "-//W3C//DTD SVG 20010904//EN"
 "http://www.w3.org/TR/2001/REC-SVG-20010904/DTD/svg10.dtd">
<svg version="1.0" xmlns="http://www.w3.org/2000/svg"
 width="221.000000pt" height="228.000000pt" viewBox="0 0 221.000000 228.000000"
 preserveAspectRatio="xMidYMid meet">
<metadata>
Created by potrace 1.16, written by Peter Selinger 2001-2019
</metadata>
<g transform="translate(0.000000,228.000000) scale(0.100000,-0.100000)"
fill="#000000" stroke="none">
<path d="M995 2275 c-5 -2 -22 -6 -37 -9 -63 -14 -128 -103 -128 -176 0 -48
31 -110 69 -143 67 -56 159 -58 231 -6 l40 29 226 0 226 0 -9 33 c-4 17 -8 73
-8 122 l0 90 -218 -3 c-217 -3 -217 -3 -250 22 -41 31 -111 51 -142 41z m66
-118 c44 -34 47 -89 7 -127 -47 -44 -128 -6 -128 60 0 60 76 102 121 67z"/>
<path d="M1693 2213 c-25 -60 -14 -175 22 -242 92 -169 305 -212 463 -94 l32
24 0 98 0 98 -57 76 -58 77 -193 0 -193 0 -16 -37z"/>
<path d="M776 1915 c-9 -14 -24 -25 -34 -25 -9 -1 -32 -21 -49 -45 -26 -35
-33 -54 -33 -90 0 -36 -7 -56 -30 -89 -37 -51 -49 -106 -27 -124 22 -19 75 10
115 63 27 35 40 44 75 49 35 5 49 14 75 48 18 23 32 50 32 61 0 10 9 30 20 44
l20 26 -38 17 c-21 10 -55 34 -74 54 l-35 36 -17 -25z"/>
<path d="M1523 1698 l-140 -183 40 -7 c68 -13 138 -59 187 -126 25 -33 47 -61
50 -61 3 0 73 91 157 202 l152 201 -58 12 c-76 16 -133 46 -191 100 -26 24
-49 44 -52 44 -3 0 -68 -82 -145 -182z"/>
<path d="M1274 1412 c-93 -44 -148 -168 -113 -259 5 -15 31 -63 57 -105 l47
-78 257 0 c142 0 258 2 258 5 0 2 -57 93 -126 200 -148 230 -168 248 -273 253
-49 2 -77 -2 -107 -16z m141 -98 c70 -33 83 -129 24 -178 -51 -43 -136 -30
-165 25 -31 62 -10 129 50 155 40 17 51 17 91 -2z"/>
<path d="M280 1012 l0 -98 60 -59 c33 -32 61 -57 63 -54 3 2 12 28 22 57 l17
52 180 -2 180 -3 20 -54 20 -53 64 63 64 63 0 94 0 93 -77 -3 c-72 -3 -78 -5
-81 -25 -3 -23 -4 -23 -188 -23 l-184 0 -6 25 c-6 24 -10 25 -80 25 l-74 0 0
-98z"/>
<path d="M1230 750 l0 -140 385 0 385 0 0 64 0 65 -60 42 c-53 37 -60 46 -60
75 l0 34 -325 0 -325 0 0 -140z"/>
<path d="M495 818 c-3 -7 -38 -107 -80 -222 -41 -115 -75 -210 -75 -212 0 -2
128 -4 283 -4 l284 0 -81 225 -80 225 -123 0 c-90 0 -125 -3 -128 -12z m180
-143 c30 -30 32 -64 4 -99 -26 -33 -79 -36 -109 -6 -30 30 -27 83 6 109 35 28
69 26 99 -4z"/>
<path d="M1090 489 c0 -32 3 -40 15 -35 9 3 26 -9 47 -34 l31 -40 397 0 397 0
27 39 c15 21 35 38 44 37 13 -1 18 8 20 37 l3 37 -490 0 -491 0 0 -41z"/>
<path d="M137 190 l-48 -80 -45 0 -44 0 0 -55 0 -55 1090 0 1090 0 0 55 0 55
-44 0 -44 0 -46 80 -47 80 -907 0 -907 0 -48 -80z"/>
</g>
</svg>
